<svg version="1.0" xmlns="http://www.w3.org/2000/svg"
 width="100%" viewBox="0 0 300.000000 300.000000"
 preserveAspectRatio="none">

<g transform="translate(0.000000,300.000000) scale(0.100000,-0.100000)"
fill="#000000" stroke="none">
<path d="M1330 2824 c-398 -51 -721 -236 -948 -543 -407 -550 -311 -1346 213
-1779 353 -292 784 -382 1230 -256 195 55 396 175 551 329 187 187 299 386
365 650 29 114 37 368 16 490 -51 289 -175 531 -371 725 -190 188 -432 316
-687 365 -83 15 -305 27 -369 19z m350 -59 c448 -74 842 -412 984 -845 53
-163 70 -286 63 -459 -14 -341 -148 -636 -398 -876 -176 -168 -383 -276 -639
-331 -102 -22 -367 -25 -470 -5 -260 51 -495 175 -680 361 -237 237 -370 555
-370 885 0 497 273 937 718 1160 238 118 509 156 792 110z"/>
<path d="M1450 2452 c-22 -3 -955 -691 -972 -716 -10 -15 2 -28 21 -23 9 2
223 158 476 347 253 189 469 345 481 348 14 2 170 -102 535 -360 283 -200 519
-367 524 -370 6 -4 17 -2 25 3 13 8 11 13 -10 32 -27 24 -989 704 -1030 729
-14 8 -36 13 -50 10z"/>
<path d="M1064 1984 c-208 -147 -387 -274 -397 -283 -16 -16 -17 -52 -17 -500
-1 -441 1 -485 16 -502 16 -18 48 -19 809 -19 754 0 793 1 808 18 15 17 17 66
17 494 0 439 -1 477 -17 496 -34 40 -793 562 -817 562 -14 0 -168 -102 -402
-266z m809 -52 l382 -267 3 -468 2 -467 -785 0 -785 0 2 472 3 471 380 268
c260 184 386 266 398 263 10 -3 190 -126 400 -272z"/>
<path d="M1464 1977 c-2 -7 -3 -76 -2 -152 3 -124 5 -140 21 -143 16 -3 17 9
17 152 0 133 -2 156 -15 156 -9 0 -18 -6 -21 -13z"/>
<path d="M1120 1754 c0 -20 111 -164 127 -164 29 0 20 25 -37 100 -58 76 -90
99 -90 64z"/>
<path d="M1789 1656 c-89 -67 -120 -106 -85 -106 17 0 198 139 203 156 11 33
-34 14 -118 -50z"/>
<path d="M1383 1604 c-57 -21 -127 -85 -154 -142 -30 -62 -31 -158 -2 -222 65
-146 226 -205 368 -136 92 46 143 132 143 241 0 70 -12 108 -54 167 -61 87
-200 129 -301 92z m160 -38 c135 -49 195 -198 130 -327 -40 -77 -93 -112 -181
-117 -45 -3 -80 1 -102 10 -89 38 -144 121 -143 219 2 155 153 265 296 215z"/>
<path d="M965 1381 c-71 -5 -90 -9 -90 -21 0 -12 18 -16 90 -18 128 -5 197 5
193 26 -4 20 -46 22 -193 13z"/>
<path d="M1781 1371 c-8 -5 -11 -16 -8 -25 5 -14 28 -16 152 -16 124 0 147 2
152 16 10 27 -18 34 -152 34 -71 0 -136 -4 -144 -9z"/>
<path d="M1113 1087 c-96 -64 -114 -84 -87 -94 20 -8 205 117 202 136 -5 26
-22 20 -115 -42z"/>
<path d="M1767 1143 c-4 -3 -7 -12 -7 -19 0 -14 165 -136 187 -138 38 -3 19
27 -49 77 -101 74 -124 88 -131 80z"/>
<path d="M1467 1054 c-9 -9 -9 -131 -1 -201 5 -36 11 -53 21 -53 22 0 25 23
16 141 -7 103 -17 132 -36 113z"/>
</g>
</svg>
