<svg version="1.0" xmlns="http://www.w3.org/2000/svg"
 width="300.000000pt" height="300.000000pt" viewBox="0 0 300.000000 300.000000"
 preserveAspectRatio="xMidYMid meet">

<g transform="translate(0.000000,300.000000) scale(0.100000,-0.100000)"
fill="#000000" stroke="none">
<path d="M1275 2781 c-353 -73 -638 -260 -845 -554 -88 -124 -171 -321 -207
-489 -25 -118 -25 -392 0 -505 59 -267 165 -468 345 -655 426 -441 1077 -532
1612 -226 327 187 555 506 637 891 27 127 25 403 -5 522 -36 145 -61 213 -119
326 -172 335 -478 578 -851 676 -84 22 -123 26 -287 29 -157 3 -206 0 -280
-15z m391 -22 c495 -55 921 -400 1073 -867 50 -153 64 -262 58 -445 -5 -182
-27 -286 -91 -444 -192 -469 -674 -793 -1179 -793 -435 0 -835 209 -1067 557
-155 231 -220 442 -220 713 0 222 39 388 136 582 61 121 119 203 223 311 280
292 666 431 1067 386z"/>
<path d="M983 2488 c-13 -20 -17 -408 -4 -421 17 -17 43 9 161 162 73 96 110
152 108 165 -2 16 -27 31 -103 63 -104 43 -148 52 -162 31z m132 -59 c44 -16
84 -34 88 -38 5 -5 -37 -68 -93 -140 -56 -73 -103 -131 -104 -129 -2 2 -1 78
2 171 3 117 8 167 16 167 6 0 47 -14 91 -31z"/>
<path d="M1865 2447 c-78 -33 -101 -47 -103 -63 -5 -32 221 -319 251 -319 22
0 22 2 25 173 1 100 -2 190 -8 213 -9 33 -15 39 -38 38 -15 0 -72 -19 -127
-42z m137 -164 c3 -93 4 -169 2 -171 -1 -2 -48 56 -104 129 -55 73 -97 136
-93 140 11 11 154 67 174 68 14 1 17 -20 21 -166z"/>
<path d="M1389 2397 c-66 -19 -128 -58 -182 -116 -73 -78 -91 -127 -92 -246 0
-89 3 -106 27 -155 96 -194 342 -278 536 -184 71 35 147 111 180 181 23 50 27
71 27 153 0 88 -3 101 -33 162 -41 84 -120 158 -200 189 -70 27 -197 34 -263
16z m244 -49 c111 -40 194 -142 216 -265 31 -171 -80 -334 -259 -379 -131 -33
-261 6 -354 107 -121 130 -122 315 -3 445 103 113 248 146 400 92z"/>
<path d="M1262 2215 c-82 -69 -9 -199 94 -165 75 25 98 107 45 161 -39 38 -96
40 -139 4z m116 -28 c23 -18 11 -79 -19 -96 -55 -31 -116 19 -91 74 19 42 72
52 110 22z"/>
<path d="M1602 2215 c-82 -69 -9 -199 94 -165 75 25 98 107 45 161 -39 38 -96
40 -139 4z m116 -28 c23 -18 11 -79 -19 -96 -55 -31 -116 19 -91 74 19 42 72
52 110 22z"/>
<path d="M1432 2015 c-16 -14 -32 -37 -35 -52 -8 -42 18 -93 53 -106 35 -13
34 -23 -3 -51 -27 -20 -29 -20 -79 -2 -64 22 -88 8 -37 -23 49 -30 115 -28
149 4 l26 25 24 -25 c30 -32 99 -34 149 -4 48 29 27 48 -29 25 -53 -21 -64
-20 -96 8 l-28 23 37 35 c30 29 37 43 37 72 0 84 -102 127 -168 71z m116 -28
c23 -18 11 -79 -19 -96 -55 -31 -116 19 -91 74 19 42 72 52 110 22z"/>
<path d="M420 1610 c-7 -12 -9 -91 -8 -212 4 -253 3 -252 153 -57 115 148 130
176 111 200 -13 17 -196 89 -226 89 -10 0 -24 -9 -30 -20z m137 -51 c52 -20
83 -37 83 -46 0 -14 -189 -268 -195 -261 -1 2 0 78 3 171 3 109 8 167 15 167
6 0 48 -14 94 -31z"/>
<path d="M1639 1589 c-18 -18 -19 -34 -19 -218 0 -129 4 -202 10 -206 6 -4 19
-1 30 7 31 22 240 299 240 319 0 22 -11 28 -140 79 -100 39 -101 39 -121 19z
m126 -60 c44 -16 84 -34 88 -38 5 -5 -37 -68 -93 -140 -56 -73 -103 -131 -105
-129 -1 2 0 78 3 171 3 116 8 167 16 167 6 0 47 -14 91 -31z"/>
<path d="M1226 1562 c-49 -21 -94 -45 -100 -54 -16 -27 1 -57 117 -208 96
-124 111 -139 128 -130 18 10 19 23 18 193 -1 100 -4 193 -8 207 -10 37 -51
35 -155 -8z m126 -169 c3 -93 4 -169 3 -171 -6 -7 -195 247 -195 261 0 14 135
74 171 76 14 1 17 -20 21 -166z"/>
<path d="M2491 1560 c-93 -37 -118 -57 -107 -85 3 -8 58 -82 122 -165 78 -101
122 -150 133 -148 14 3 16 28 19 202 3 265 4 265 -167 196z m130 -170 c4 -91
5 -166 4 -168 -2 -2 -49 56 -105 129 -56 72 -98 135 -93 140 13 13 157 68 173
66 12 -2 16 -31 21 -167z"/>
<path d="M2029 1487 c-66 -19 -128 -58 -182 -116 -73 -78 -91 -127 -92 -246 0
-89 3 -106 27 -155 96 -194 342 -278 536 -184 71 35 147 111 180 181 23 50 27
71 27 153 0 88 -3 101 -33 162 -41 84 -120 158 -200 189 -70 27 -197 34 -263
16z m244 -49 c111 -40 194 -142 216 -265 31 -171 -80 -334 -259 -379 -131 -33
-261 6 -354 107 -121 130 -122 315 -3 445 103 113 248 146 400 92z"/>
<path d="M1902 1305 c-82 -69 -9 -199 94 -165 75 25 98 107 45 161 -39 38 -96
40 -139 4z m116 -28 c23 -18 11 -79 -19 -96 -55 -31 -116 19 -91 74 19 42 72
52 110 22z"/>
<path d="M2242 1305 c-82 -69 -9 -199 94 -165 75 25 98 107 45 161 -39 38 -96
40 -139 4z m116 -28 c23 -18 11 -79 -19 -96 -55 -31 -116 19 -91 74 19 42 72
52 110 22z"/>
<path d="M2072 1105 c-16 -14 -32 -37 -35 -52 -8 -42 18 -93 53 -106 35 -13
34 -23 -3 -51 -27 -20 -29 -20 -79 -2 -64 22 -88 8 -37 -23 49 -30 115 -28
149 4 l26 25 24 -25 c30 -32 99 -34 149 -4 48 29 27 48 -29 25 -53 -21 -64
-20 -96 8 l-28 23 37 35 c30 29 37 43 37 72 0 84 -102 127 -168 71z m116 -28
c23 -18 11 -79 -19 -96 -55 -31 -116 19 -91 74 19 42 72 52 110 22z"/>
<path d="M779 1467 c-66 -19 -128 -58 -182 -116 -73 -78 -91 -127 -92 -246 0
-89 3 -106 27 -155 96 -194 342 -278 536 -184 71 35 147 111 180 181 23 50 27
71 27 153 0 88 -3 101 -33 162 -41 84 -120 158 -200 189 -70 27 -197 34 -263
16z m244 -49 c111 -40 194 -142 216 -265 31 -171 -80 -334 -259 -379 -131 -33
-261 6 -354 107 -121 130 -122 315 -3 445 103 113 248 146 400 92z"/>
<path d="M642 1295 c-82 -69 -9 -199 94 -165 75 25 98 107 45 161 -39 38 -96
40 -139 4z m116 -28 c23 -18 11 -79 -19 -96 -55 -31 -116 19 -91 74 19 42 72
52 110 22z"/>
<path d="M982 1295 c-82 -69 -9 -199 94 -165 75 25 98 107 45 161 -39 38 -96
40 -139 4z m116 -28 c23 -18 11 -79 -19 -96 -55 -31 -116 19 -91 74 19 42 72
52 110 22z"/>
<path d="M812 1095 c-16 -14 -32 -37 -35 -52 -8 -42 18 -93 53 -106 35 -13 34
-23 -3 -51 -27 -20 -29 -20 -79 -2 -64 22 -88 8 -37 -23 49 -30 115 -28 149 4
l26 25 24 -25 c30 -32 99 -34 149 -4 48 29 27 48 -29 25 -53 -21 -64 -20 -96
8 l-28 23 37 35 c30 29 37 43 37 72 0 84 -102 127 -168 71z m116 -28 c23 -18
11 -79 -19 -96 -55 -31 -116 19 -91 74 19 42 72 52 110 22z"/>
</g>
</svg>
