<svg version="1.0" xmlns="http://www.w3.org/2000/svg"
 width="100%" viewBox="0 0 300.000000 300.000000"
 preserveAspectRatio="none">

<g transform="translate(0.000000,300.000000) scale(0.100000,-0.100000)"
fill="#000000" stroke="none">
<path d="M1245 2801 c-353 -73 -638 -260 -845 -554 -88 -124 -171 -321 -207
-489 -25 -118 -25 -392 0 -505 59 -267 165 -468 345 -655 426 -441 1077 -532
1612 -226 327 187 555 506 637 891 27 127 25 403 -5 522 -36 145 -61 213 -119
326 -172 335 -478 578 -851 676 -84 22 -123 26 -287 29 -157 3 -206 0 -280
-15z m391 -22 c495 -55 921 -400 1073 -867 50 -153 64 -262 58 -445 -5 -182
-27 -286 -91 -444 -192 -469 -674 -793 -1179 -793 -435 0 -835 209 -1067 557
-155 231 -220 442 -220 713 0 222 39 388 136 582 61 121 119 203 223 311 280
292 666 431 1067 386z"/>
<path d="M1204 2488 c-379 -390 -595 -723 -686 -1059 -19 -71 -22 -108 -22
-239 0 -142 3 -162 28 -240 33 -99 66 -168 92 -192 24 -21 280 -134 422 -187
292 -107 502 -153 702 -154 182 0 291 32 413 120 161 118 264 441 216 675 -34
166 -168 326 -361 432 -73 40 -88 44 -88 19 0 -12 29 -34 83 -63 112 -61 242
-190 285 -280 42 -90 56 -172 49 -283 -17 -245 -123 -436 -287 -515 -113 -55
-174 -65 -355 -59 -151 5 -193 11 -352 53 l-61 16 -32 71 c-81 181 -114 329
-113 512 0 138 12 210 54 350 59 191 162 378 322 584 81 105 359 393 449 465
l47 37 98 -77 c54 -43 100 -79 103 -81 2 -2 -30 -37 -73 -76 -89 -84 -203
-216 -274 -319 -69 -100 -153 -248 -153 -270 0 -39 30 -14 69 56 101 184 261
390 406 522 47 43 84 82 83 86 -2 5 -60 54 -128 108 l-125 99 -351 1 -351 0
-109 -112z m684 15 c-277 -247 -509 -533 -636 -780 -108 -211 -156 -400 -156
-613 0 -183 32 -335 104 -494 16 -36 28 -66 26 -66 -12 0 -217 76 -306 113
-267 111 -280 118 -305 167 -68 135 -100 335 -76 486 51 330 280 713 663 1110
l130 134 310 0 309 0 -63 -57z"/>
<path d="M771 1829 c-22 -40 -41 -75 -41 -79 0 -4 82 -12 183 -19 100 -7 200
-14 222 -17 l40 -5 37 75 c21 42 34 76 30 76 -4 0 -95 9 -202 20 -107 11 -202
20 -211 20 -10 0 -33 -29 -58 -71z m267 10 c78 -7 142 -16 142 -20 0 -5 -5
-20 -12 -35 l-12 -26 -139 7 c-77 4 -158 10 -182 13 l-42 7 24 38 c20 32 28
38 51 33 15 -3 91 -10 170 -17z"/>
<path d="M1740 1493 c-196 -23 -348 -117 -402 -250 -20 -51 -23 -75 -23 -194
0 -158 5 -169 71 -169 116 0 189 82 234 261 29 120 79 219 140 280 48 48 60
81 28 77 -7 0 -29 -3 -48 -5z m-26 -55 c-5 -7 -23 -33 -40 -58 -43 -61 -67
-117 -93 -224 -41 -165 -98 -236 -190 -236 -34 0 -41 23 -41 139 0 202 99 327
298 375 73 18 75 18 66 4z"/>
<path d="M1854 1430 c-99 -56 -164 -161 -204 -326 -38 -158 -100 -236 -217
-270 -29 -8 -55 -20 -59 -25 -10 -16 47 -89 102 -131 56 -42 145 -78 193 -78
26 0 36 8 64 53 46 71 112 129 194 171 139 70 202 158 225 314 10 71 10 85 -7
128 -23 61 -95 139 -157 170 -60 31 -72 30 -134 -6z m116 -30 c53 -27 102 -78
130 -134 25 -53 23 -108 -11 -213 -28 -84 -77 -138 -180 -192 -95 -51 -169
-115 -206 -179 -25 -42 -27 -43 -62 -37 -53 10 -147 63 -182 103 l-31 35 60
28 c106 48 167 130 198 267 37 165 105 276 199 325 38 21 39 21 85 -3z"/>
<path d="M2173 1098 c-5 -7 -18 -35 -28 -63 -48 -132 -106 -210 -188 -252
-131 -66 -234 -224 -135 -207 225 39 343 186 382 476 5 41 -14 68 -31 46z
m-80 -290 c-37 -70 -94 -125 -157 -153 -67 -30 -96 -38 -96 -27 0 19 84 92
141 122 32 17 75 50 96 74 21 24 40 43 41 41 2 -2 -9 -27 -25 -57z"/>
</g>
</svg>
