  <svg
    version="1.0"
    xmlns="http://www.w3.org/2000/svg"
    width="100%"
    viewBox="0 0 300.000000 300.000000"
    preserveAspectRatio="none"
  >
    <g
      transform="translate(0.000000,300.000000) scale(0.100000,-0.100000)"
      fill="#000000"
      stroke="none"
    >
      <path
        d="M1330 2824 c-398 -51 -721 -236 -948 -543 -407 -550 -311 -1346 213
-1779 353 -292 784 -382 1230 -256 195 55 396 175 551 329 187 187 299 386
365 650 29 114 37 368 16 490 -51 289 -175 531 -371 725 -190 188 -432 316
-687 365 -83 15 -305 27 -369 19z m350 -59 c448 -74 842 -412 984 -845 53
-163 70 -286 63 -459 -14 -341 -148 -636 -398 -876 -176 -168 -383 -276 -639
-331 -102 -22 -367 -25 -470 -5 -260 51 -495 175 -680 361 -237 237 -370 555
-370 885 0 497 273 937 718 1160 238 118 509 156 792 110z"
      />
      <path
        d="M580 2040 c-19 -19 -20 -33 -20 -535 0 -502 1 -516 20 -535 20 -20
33 -20 899 -20 786 0 881 2 895 16 14 14 16 77 16 545 l0 529 -26 10 c-16 6
-354 10 -895 10 -856 0 -869 0 -889 -20z m1765 -535 l0 -510 -217 -3 c-200 -2
-217 -1 -222 15 -3 10 -32 115 -66 233 -33 118 -65 225 -70 238 -10 22 -11 22
-239 22 -195 0 -232 -2 -245 -16 -9 -8 -16 -23 -16 -32 -1 -51 -18 -41 -149
83 -73 69 -136 125 -139 125 -4 0 -20 -12 -36 -27 l-29 -27 161 -155 161 -156
-31 -153 -31 -152 -281 2 -281 3 -3 500 c-1 275 0 506 3 513 3 10 182 12 867
10 l863 -3 0 -510z m-1142 -104 c78 -72 90 -71 101 9 l7 50 212 0 212 0 66
-232 66 -233 -320 -3 c-176 -1 -322 -1 -324 1 -1 2 10 70 27 152 16 81 30 153
30 159 0 6 -67 76 -148 156 -136 133 -127 126 71 -59z"
      />
      <path
        d="M1435 1874 c-103 -53 -138 -161 -83 -255 95 -162 354 -95 351 91 -1
51 -19 94 -55 127 -54 51 -154 68 -213 37z m138 -38 c54 -22 87 -70 87 -124 0
-88 -56 -142 -147 -142 -87 0 -143 55 -143 140 0 55 25 96 75 120 47 23 83 25
128 6z"
      />
    </g>
  </svg>
