<?xml version="1.0" encoding="UTF-8" standalone="no"?>
<!DOCTYPE svg PUBLIC "-//W3C//DTD SVG 20010904//EN"
              "http://www.w3.org/TR/2001/REC-SVG-20010904/DTD/svg10.dtd">

<svg xmlns="http://www.w3.org/2000/svg"
     width="100%" height=""
     viewBox="0 0 684 614">
  <path id="Selection"
        fill="#bbdefb" stroke="none" stroke-width="1"
        d="M 122.00,0.47
           C 131.59,-0.62 135.96,4.95 136.92,14.00
             138.80,31.70 135.02,37.42 135.00,51.00
             134.98,61.60 135.97,73.99 132.19,84.00
             127.72,95.83 113.06,103.96 101.00,105.85
             101.00,105.85 91.00,105.85 91.00,105.85
             73.65,105.79 58.22,94.27 58.00,76.00
             57.72,51.97 77.86,33.14 94.09,17.82
             102.02,10.34 111.14,2.89 122.00,0.47 Z
           M 540.00,10.42
           C 547.67,9.49 556.32,10.72 564.00,11.72
             600.06,16.41 632.51,35.61 658.00,61.00
             658.00,61.00 676.39,81.00 676.39,81.00
             678.42,83.47 682.43,88.13 683.42,91.00
             684.11,93.03 684.00,95.84 684.00,98.00
             684.00,98.00 684.00,421.00 684.00,421.00
             683.98,431.43 679.91,432.18 671.00,437.55
             660.73,443.75 649.96,449.40 639.00,454.27
             601.15,471.07 559.97,479.25 519.00,483.17
             519.00,483.17 473.00,486.00 473.00,486.00
             473.00,486.00 463.00,485.09 463.00,485.09
             463.00,485.09 441.00,483.17 441.00,483.17
             389.46,478.18 331.71,460.41 290.00,429.13
             259.82,406.49 235.46,373.11 235.00,334.00
             234.68,306.02 239.32,284.01 252.26,259.00
             266.49,231.48 292.31,208.88 317.00,190.85
             347.16,168.82 379.24,148.94 407.00,123.83
             440.52,93.52 457.39,47.51 490.00,26.08
             507.73,14.42 520.00,13.28 540.00,10.42 Z
           M 46.00,536.00
           C 42.08,530.15 37.81,535.53 28.00,530.62
             17.25,525.25 9.13,512.99 4.96,502.00
             -8.60,466.25 8.87,424.90 46.00,412.67
             52.15,410.64 58.50,409.08 65.00,409.00
             79.29,408.84 89.17,410.31 102.00,417.31
             112.78,423.20 122.07,433.84 130.15,443.00
             130.15,443.00 159.87,479.00 159.87,479.00
             168.06,489.94 180.55,508.94 184.22,522.00
             186.38,529.73 187.13,540.75 178.00,544.26
             175.46,545.24 169.88,545.03 167.00,545.00
             154.22,544.85 136.36,536.80 125.00,530.97
             115.94,526.32 106.63,520.49 96.00,521.09
             79.13,522.05 62.31,531.71 47.00,533.00
             47.00,533.00 46.00,536.00 46.00,536.00 Z" />
</svg>
