
<svg xmlns="http://www.w3.org/2000/svg"
     width="100%" height=""
     viewBox="0 0 720 599">
  <path id="Selection"
        fill="#bbdefb" fill-opacity="1" stroke="none" stroke-width="1"
        d="M 122.00,0.21
           C 122.00,0.21 133.00,0.21 133.00,0.21
             174.68,0.06 208.03,20.62 235.16,51.00
             280.05,101.27 307.10,165.11 355.00,213.00
             374.70,232.69 397.49,248.83 424.00,257.92
             441.47,263.91 475.95,269.02 496.00,273.42
             537.66,282.57 576.98,293.03 617.00,307.95
             648.03,319.52 690.47,339.52 709.79,367.00
             726.68,391.01 721.65,417.39 701.96,438.00
             676.33,464.84 642.78,482.17 609.00,496.58
             516.43,536.07 404.10,559.55 305.00,577.42
             305.00,577.42 224.00,590.42 224.00,590.42
             196.25,594.73 168.12,599.33 140.00,599.00
             140.00,599.00 130.00,597.96 130.00,597.96
             130.00,597.96 121.00,597.96 121.00,597.96
             89.67,594.85 59.95,587.77 31.00,575.28
             31.00,575.28 10.00,565.24 10.00,565.24
             7.63,564.04 2.42,561.52 0.99,559.39
             -0.25,557.54 0.00,554.19 0.00,552.00
             0.00,552.00 0.00,46.00 0.00,46.00
             0.00,43.87 -0.25,40.42 0.99,38.63
             2.17,36.94 6.10,35.20 8.00,34.14
             8.00,34.14 27.00,24.78 27.00,24.78
             46.64,15.51 76.49,7.05 98.00,3.43
             98.00,3.43 122.00,0.21 122.00,0.21 Z" />
</svg>
