<svg version="1.0" xmlns="http://www.w3.org/2000/svg"
 width="100%" viewBox="0 0 300.000000 300.000000"
 preserveAspectRatio="none">

<g transform="translate(0.000000,300.000000) scale(0.100000,-0.100000)"
fill="#000000" stroke="none">
<path d="M1330 2824 c-398 -51 -721 -236 -948 -543 -407 -550 -311 -1346 213
-1779 353 -292 784 -382 1230 -256 195 55 396 175 551 329 187 187 299 386
365 650 29 114 37 368 16 490 -51 289 -175 531 -371 725 -190 188 -432 316
-687 365 -83 15 -305 27 -369 19z m350 -59 c448 -74 842 -412 984 -845 53
-163 70 -286 63 -459 -14 -341 -148 -636 -398 -876 -176 -168 -383 -276 -639
-331 -102 -22 -367 -25 -470 -5 -260 51 -495 175 -680 361 -237 237 -370 555
-370 885 0 497 273 937 718 1160 238 118 509 156 792 110z"/>
<path d="M2211 1779 c-100 -94 -180 -176 -178 -182 2 -6 8 -12 15 -15 15 -5
366 327 370 350 7 40 -33 10 -207 -153z"/>
<path d="M601 1709 c-13 -5 -106 -59 -207 -120 -141 -84 -184 -115 -184 -130
0 -11 30 -66 67 -122 36 -56 104 -159 150 -229 46 -71 89 -128 97 -128 7 0 18
6 25 13 10 13 121 464 121 494 0 7 -8 13 -18 13 -16 0 -26 -33 -72 -227 -29
-126 -54 -229 -55 -231 -2 -2 -64 90 -139 204 -75 113 -136 208 -134 209 2 2
84 52 183 111 l180 109 75 -3 c41 -2 294 -16 562 -32 l487 -29 39 -39 39 -39
-16 -206 c-9 -113 -19 -208 -23 -212 -10 -10 -850 -265 -873 -264 -13 0 -61
43 -130 118 -60 65 -116 122 -123 125 -7 3 -15 -1 -18 -9 -7 -17 17 -47 142
-177 79 -82 99 -98 125 -98 27 0 759 216 865 255 29 11 45 25 52 43 6 15 16
97 22 182 17 243 19 258 42 266 25 8 48 61 41 97 -7 36 -47 67 -87 67 -31 0
-65 -22 -83 -54 -7 -12 -77 -10 -493 14 -267 16 -519 31 -560 34 -41 2 -86 0
-99 -5z m1267 -41 c22 -22 14 -67 -13 -80 -21 -9 -28 -8 -45 7 -11 10 -20 28
-20 41 0 36 52 58 78 32z"/>
<path d="M2360 1514 c-124 -14 -231 -26 -237 -29 -25 -9 -14 -35 15 -35 72 1
496 50 504 58 16 16 -1 32 -30 31 -15 -1 -128 -12 -252 -25z"/>
<path d="M866 1454 c-37 -37 -35 -86 3 -125 33 -32 58 -36 100 -14 54 27 61
108 13 145 -36 29 -83 26 -116 -6z m92 -26 c22 -22 14 -67 -13 -80 -21 -9 -28
-8 -45 7 -11 10 -20 28 -20 41 0 36 52 58 78 32z"/>
<path d="M2064 1339 c-10 -17 10 -31 197 -133 177 -96 213 -110 207 -80 -2 14
-368 224 -390 224 -4 0 -10 -5 -14 -11z"/>
</g>
</svg>
