<?xml version="1.0" encoding="UTF-8" standalone="no"?>
<!DOCTYPE svg PUBLIC "-//W3C//DTD SVG 20010904//EN"
              "http://www.w3.org/TR/2001/REC-SVG-20010904/DTD/svg10.dtd">

<svg xmlns="http://www.w3.org/2000/svg"
     width="100%"
     viewBox="0 0 1921 1051">
  <path id="Selection"
        fill="#bbdefb" stroke="none" stroke-width="1"
        d="M 1921.00,157.00
           C 1921.00,157.00 1921.00,968.00 1921.00,968.00
             1920.98,978.85 1918.47,977.85 1907.00,983.57
             1907.00,983.57 1872.00,998.60 1872.00,998.60
             1833.74,1013.65 1792.84,1021.28 1752.00,1024.09
             1752.00,1024.09 1740.00,1025.00 1740.00,1025.00
             1740.00,1025.00 1699.00,1025.00 1699.00,1025.00
             1699.00,1025.00 1689.00,1024.09 1689.00,1024.09
             1670.22,1022.80 1651.56,1020.77 1633.00,1017.42
             1568.42,1005.78 1517.56,987.83 1459.00,958.35
             1384.41,920.79 1314.96,867.96 1256.00,809.00
             1180.85,733.85 1119.39,648.00 1077.58,550.00
             1054.25,495.32 1036.42,441.76 1026.57,383.00
             1024.16,368.65 1020.07,339.91 1020.00,326.00
             1020.00,326.00 1019.01,301.01 1019.01,301.01
             1019.01,301.01 1020.00,278.00 1020.00,278.00
             1020.00,278.00 1020.91,268.00 1020.91,268.00
             1023.16,237.19 1030.29,202.46 1042.43,174.00
             1057.39,138.93 1077.59,108.86 1106.00,83.17
             1166.66,28.31 1259.94,-0.94 1341.00,0.00
             1341.00,0.00 1352.00,0.96 1352.00,0.96
             1391.81,2.70 1433.21,11.89 1471.00,24.49
             1471.00,24.49 1498.00,33.43 1498.00,33.43
             1557.71,55.02 1615.17,82.45 1674.00,106.27
             1718.34,124.22 1763.87,139.96 1811.00,148.74
             1830.80,152.43 1850.94,154.17 1871.00,155.04
             1871.00,155.04 1882.00,156.00 1882.00,156.00
             1882.00,156.00 1913.00,157.00 1913.00,157.00
             1913.00,157.00 1921.00,157.00 1921.00,157.00 Z
           M 72.00,528.21
           C 72.00,528.21 98.00,528.21 98.00,528.21
             107.61,528.01 120.73,530.34 130.00,533.00
             142.54,536.60 154.84,541.17 166.00,548.06
             186.59,560.78 204.45,580.77 218.87,600.00
             237.69,625.09 253.88,652.13 270.00,679.00
             270.00,679.00 295.05,720.00 295.05,720.00
             312.81,748.31 331.41,776.12 352.61,802.00
             363.23,814.95 379.01,829.93 386.69,844.00
             393.07,855.69 395.15,866.84 395.00,880.00
             394.57,916.27 363.49,949.09 337.00,970.20
             294.77,1003.85 234.74,1030.78 182.00,1042.42
             164.14,1046.37 139.11,1050.97 121.00,1051.00
             121.00,1051.00 103.00,1051.00 103.00,1051.00
             103.00,1051.00 94.00,1050.17 94.00,1050.17
             69.52,1047.80 45.91,1042.76 23.00,1033.60
             18.41,1031.76 3.35,1026.27 1.02,1022.61
             -0.22,1020.66 0.00,1017.27 0.00,1015.00
             0.00,1015.00 0.00,560.00 0.00,560.00
             0.00,558.14 -0.12,554.87 0.60,553.21
             2.10,549.76 13.30,545.00 17.00,543.31
             35.61,534.79 51.98,531.28 72.00,528.21 Z" />
</svg>
