
<svg xmlns="http://www.w3.org/2000/svg"
     width="100%" height="100%"
     viewBox="0 0 655 775">
  <path id="Selection"
        fill="white" stroke="none" stroke-width="1"
        d="M 154.00,185.00
           C 151.61,184.95 140.01,184.14 138.43,182.98
             136.79,181.47 137.60,178.88 138.43,177.00
             140.14,171.54 142.68,169.16 148.00,167.07
             153.07,165.07 163.63,162.86 169.00,163.10
             169.00,163.10 181.00,164.93 181.00,164.93
             183.58,164.56 189.04,160.73 192.00,159.32
             192.00,159.32 209.00,153.15 209.00,153.15
             212.23,151.21 218.83,144.95 219.00,141.00
             219.12,138.13 216.02,134.58 218.01,131.65
             219.18,129.92 222.09,129.16 224.00,128.67
             227.44,127.78 238.64,126.07 242.00,126.08
             245.59,126.08 249.93,127.14 253.00,129.00
             261.43,134.13 271.26,151.31 273.33,161.00
             274.08,164.51 274.04,167.45 274.00,171.00
             274.00,171.00 271.09,191.00 271.09,191.00
             270.49,200.20 274.14,200.63 273.67,207.00
             273.67,207.00 267.35,246.00 267.35,246.00
             267.35,246.00 263.47,259.00 263.47,259.00
             261.60,268.93 266.04,271.20 264.00,279.00
             272.07,283.71 266.02,284.68 271.54,292.01
             271.54,292.01 289.24,311.00 289.24,311.00
             295.09,318.97 292.92,321.18 295.59,324.82
             298.11,328.24 307.93,333.10 312.00,335.69
             312.00,335.69 338.00,354.89 338.00,354.89
             343.73,358.13 352.57,357.65 359.00,358.09
             359.00,358.09 383.00,359.91 383.00,359.91
             383.00,359.91 406.00,361.42 406.00,361.42
             411.51,362.18 424.60,366.50 428.61,362.68
             433.46,358.07 435.44,343.63 436.42,337.00
             440.22,311.35 444.72,294.33 438.99,268.00
             437.77,262.44 435.59,255.32 431.79,251.04
             427.84,246.59 422.79,244.29 418.00,240.96
             408.29,234.20 397.92,224.19 396.00,212.00
             407.21,212.25 415.29,219.70 424.00,226.12
             440.09,237.96 441.53,237.95 452.66,255.00
             457.11,261.83 459.95,264.67 460.04,273.00
             460.04,273.00 460.04,285.00 460.04,285.00
             460.04,285.00 461.00,297.00 461.00,297.00
             461.00,297.00 461.00,342.00 461.00,342.00
             461.00,342.00 462.00,357.00 462.00,357.00
             462.00,357.00 460.72,379.00 460.72,379.00
             460.27,382.78 458.73,390.65 459.66,394.00
             460.63,397.50 464.56,402.66 466.55,406.00
             469.34,410.70 472.58,417.79 474.25,423.00
             474.25,423.00 481.42,450.00 481.42,450.00
             481.42,450.00 501.94,496.00 501.94,496.00
             501.94,496.00 506.45,510.00 506.45,510.00
             506.45,510.00 518.72,536.00 518.72,536.00
             518.72,536.00 524.41,552.00 524.41,552.00
             528.46,559.42 537.37,564.79 542.87,571.00
             546.23,574.80 547.97,579.34 549.80,584.00
             549.80,584.00 562.80,638.00 562.80,638.00
             563.95,643.85 567.89,652.67 564.26,657.89
             560.54,663.26 545.22,664.28 539.00,663.96
             535.26,663.76 519.03,657.63 516.06,655.35
             514.48,654.15 513.29,652.87 512.60,650.98
             510.24,644.53 516.85,636.66 520.58,632.02
             522.08,630.14 523.86,627.65 526.17,626.89
             528.08,626.05 535.23,626.97 538.00,626.89
             533.42,617.48 524.21,602.49 516.96,595.00
             509.06,586.84 508.04,589.20 504.21,585.70
             501.37,583.11 499.16,578.49 497.59,575.00
             495.33,570.00 491.11,560.05 488.21,556.00
             488.21,556.00 467.09,534.00 467.09,534.00
             455.40,521.44 448.83,506.37 434.00,496.36
             431.34,494.56 423.07,489.59 420.04,489.70
             414.97,489.88 410.27,501.84 408.26,506.00
             408.26,506.00 396.15,537.00 396.15,537.00
             393.22,543.88 385.85,561.04 385.67,568.00
             385.60,570.98 389.10,578.98 390.11,583.00
             393.41,596.16 392.33,603.09 399.27,617.00
             402.45,623.39 409.50,634.32 410.67,641.00
             412.36,650.65 407.51,656.35 404.75,665.00
             402.03,673.49 402.14,680.19 397.63,689.00
             394.76,694.60 392.84,695.95 388.00,699.58
             375.93,708.64 372.78,708.99 358.00,706.00
             354.42,705.27 345.95,703.93 344.04,700.72
             341.59,696.62 346.11,690.92 347.37,687.00
             347.37,687.00 349.00,680.00 349.00,680.00
             349.00,680.00 351.00,680.00 351.00,680.00
             355.04,692.26 349.47,692.72 354.22,696.39
             356.69,698.31 366.98,702.64 369.91,701.65
             369.91,701.65 384.00,692.10 384.00,692.10
             390.99,688.15 395.85,689.93 397.00,680.00
             397.00,680.00 388.00,684.00 388.00,684.00
             388.47,673.87 392.71,666.16 396.40,657.00
             397.98,653.07 398.92,648.51 401.00,645.00
             401.00,645.00 403.00,648.00 403.00,648.00
             403.00,648.00 404.29,640.00 404.29,640.00
             404.29,640.00 390.10,612.00 390.10,612.00
             390.10,612.00 383.00,579.00 383.00,579.00
             383.00,579.00 382.00,588.00 382.00,588.00
             382.00,588.00 380.14,588.00 380.14,588.00
             380.14,588.00 380.14,563.00 380.14,563.00
             380.14,563.00 380.14,549.09 380.14,549.09
             380.14,549.09 383.00,543.00 383.00,543.00
             388.00,541.35 388.15,538.64 390.00,534.00
             390.00,534.00 397.46,511.00 397.46,511.00
             397.46,511.00 409.74,488.00 409.74,488.00
             409.74,488.00 417.01,458.00 417.01,458.00
             417.01,458.00 417.01,452.00 417.01,452.00
             417.90,448.18 419.64,446.81 420.43,444.00
             420.84,442.54 420.13,429.73 419.69,428.10
             418.35,423.26 415.12,425.46 413.00,419.00
             414.80,419.27 418.51,420.28 420.06,419.52
             423.81,417.70 425.32,404.83 425.00,401.00
             423.84,404.88 423.57,405.92 420.00,408.00
             420.00,408.00 421.00,400.00 421.00,400.00
             421.00,400.00 417.00,400.00 417.00,400.00
             417.00,400.00 417.00,394.00 417.00,394.00
             411.77,394.43 395.39,397.26 393.04,402.21
             392.36,403.74 392.81,404.55 393.04,406.00
             393.04,406.00 374.00,414.79 374.00,414.79
             374.00,414.79 366.43,415.85 366.43,415.85
             366.43,415.85 362.44,410.22 362.44,410.22
             362.44,410.22 355.00,406.00 355.00,406.00
             355.00,406.00 356.00,403.00 356.00,403.00
             351.75,405.55 346.22,408.44 341.43,404.99
             337.72,402.32 337.78,388.95 339.77,385.09
             344.02,376.81 356.95,376.30 364.00,367.00
             364.00,367.00 339.00,362.60 339.00,362.60
             336.08,362.02 329.62,360.85 327.25,359.43
             324.88,358.02 323.67,355.17 321.78,353.03
             318.59,349.44 313.50,345.45 309.00,343.71
             302.85,341.35 287.29,339.03 283.31,335.35
             281.65,333.82 281.62,332.99 281.00,331.00
             281.00,331.00 288.00,332.00 288.00,332.00
             288.00,332.00 280.82,319.00 280.82,319.00
             280.82,319.00 267.52,306.91 267.52,306.91
             267.52,306.91 257.90,294.23 257.90,294.23
             257.90,294.23 239.00,298.00 239.00,298.00
             239.00,298.00 213.00,302.87 213.00,302.87
             213.00,302.87 184.00,306.00 184.00,306.00
             189.08,316.97 183.37,325.88 177.33,335.00
             175.27,338.12 171.46,343.35 170.93,347.00
             170.56,349.56 171.87,354.27 172.39,357.00
             172.39,357.00 175.42,373.00 175.42,373.00
             175.42,373.00 177.47,380.99 177.47,380.99
             178.23,385.44 176.55,385.69 176.01,388.17
             175.50,390.48 176.59,392.71 176.86,395.00
             176.86,395.00 178.26,408.00 178.26,408.00
             179.41,414.19 183.98,427.58 182.00,433.00
             182.00,433.00 179.00,426.00 179.00,426.00
             179.00,426.00 175.48,437.00 175.48,437.00
             175.48,437.00 172.05,452.00 172.05,452.00
             172.05,452.00 163.78,467.00 163.78,467.00
             163.78,467.00 151.02,500.00 151.02,500.00
             151.02,500.00 147.37,516.00 147.37,516.00
             147.37,516.00 147.37,524.00 147.37,524.00
             147.37,524.00 146.00,531.00 146.00,531.00
             149.94,522.93 156.90,515.03 162.61,508.00
             166.41,503.32 169.48,498.63 175.00,496.00
             175.00,496.00 176.00,499.00 176.00,499.00
             180.18,490.38 182.19,494.89 186.00,478.00
             186.00,478.00 166.33,501.78 166.33,501.78
             166.33,501.78 160.18,506.49 160.18,506.49
             160.18,506.49 152.00,514.00 152.00,514.00
             155.66,503.03 161.41,491.89 171.00,485.00
             171.00,485.00 172.00,488.00 172.00,488.00
             176.31,479.16 179.55,477.31 184.48,470.00
             184.48,470.00 189.95,461.06 189.95,461.06
             193.08,456.80 195.99,456.29 197.00,461.79
             198.34,461.92 199.69,461.93 201.00,461.79
             211.31,458.70 204.09,452.33 205.58,441.00
             206.73,432.24 207.23,410.88 203.97,403.00
             200.60,394.88 197.35,396.28 193.97,391.79
             189.52,385.88 189.04,374.89 191.00,368.00
             191.00,368.00 193.00,368.00 193.00,368.00
             195.45,376.60 192.76,377.72 199.00,389.00
             199.00,389.00 201.00,373.00 201.00,373.00
             201.00,373.00 203.00,373.00 203.00,373.00
             203.00,373.00 205.00,385.00 205.00,385.00
             205.04,380.13 204.83,376.96 208.00,373.00
             208.00,373.00 211.85,403.00 211.85,403.00
             211.85,403.00 219.00,416.00 219.00,416.00
             219.00,416.00 221.00,411.00 221.00,411.00
             221.00,411.00 228.00,416.00 228.00,416.00
             228.00,416.00 230.00,406.00 230.00,406.00
             235.02,417.65 234.83,415.79 241.96,425.09
             244.99,429.04 246.03,431.24 250.01,434.82
             254.25,438.62 260.64,440.48 263.00,444.00
             254.26,443.80 252.93,441.90 246.00,437.00
             248.13,441.05 249.44,442.27 249.00,447.00
             249.00,447.00 266.00,452.70 266.00,452.70
             266.00,452.70 289.00,457.25 289.00,457.25
             295.12,458.25 300.94,459.72 307.00,458.00
             295.81,453.56 289.64,453.54 278.00,452.00
             278.00,452.00 278.00,450.04 278.00,450.04
             278.00,450.04 289.00,450.04 289.00,450.04
             289.00,450.04 305.00,451.00 305.00,451.00
             300.26,450.51 294.71,449.18 292.00,445.00
             292.00,445.00 324.00,453.00 324.00,453.00
             318.38,445.51 311.83,442.52 305.00,437.00
             305.00,437.00 320.00,441.00 320.00,441.00
             320.00,441.00 318.00,435.00 318.00,435.00
             331.18,436.85 335.99,454.68 336.00,466.00
             336.00,466.00 312.00,459.00 312.00,459.00
             317.36,460.97 333.36,469.25 335.91,474.04
             337.53,477.37 336.05,483.04 335.91,487.00
             335.91,487.00 336.83,536.00 336.83,536.00
             338.14,549.65 336.71,554.67 349.00,564.00
             349.00,564.00 350.00,560.00 350.00,560.00
             357.21,575.50 361.28,594.68 373.00,607.00
             373.00,607.00 372.00,600.00 372.00,600.00
             378.92,605.00 382.31,610.85 386.60,618.00
             394.19,630.64 397.00,631.06 397.00,645.97
             394.84,646.17 390.31,647.13 388.58,645.97
             387.34,645.08 385.09,638.78 384.31,637.00
             380.58,628.50 378.54,618.04 371.00,612.00
             371.32,626.36 382.06,638.44 384.53,652.00
             385.81,658.99 381.97,665.16 381.00,672.00
             381.00,672.00 382.00,671.00 382.00,671.00
             382.00,671.00 384.00,672.00 384.00,672.00
             382.47,676.58 379.09,688.40 373.04,688.26
             369.96,688.18 368.24,684.61 365.79,682.63
             362.21,679.72 357.21,678.79 353.00,677.00
             358.58,673.76 366.25,674.61 372.00,677.00
             373.37,668.26 379.22,661.41 378.86,654.00
             378.62,649.12 373.06,639.82 370.78,635.00
             370.78,635.00 356.53,602.00 356.53,602.00
             346.96,586.46 329.03,572.85 329.00,553.00
             329.00,553.00 329.00,516.00 329.00,516.00
             329.00,516.00 328.00,500.00 328.00,500.00
             328.00,500.00 328.00,483.00 328.00,483.00
             327.96,480.66 328.00,478.21 326.83,476.10
             323.57,470.22 308.40,466.95 302.00,465.37
             298.58,464.53 292.36,462.89 289.00,463.30
             284.00,463.89 286.23,465.16 276.00,465.00
             274.49,464.96 271.30,464.71 270.00,465.00
             266.79,465.78 258.07,474.43 255.00,477.16
             242.91,487.96 227.77,499.55 217.81,512.00
             217.81,512.00 206.39,529.41 206.39,529.41
             205.05,530.58 204.53,530.50 203.00,531.00
             203.32,525.19 204.17,524.00 207.00,519.00
             200.50,523.97 201.11,526.38 193.00,522.00
             196.69,513.86 202.83,506.72 211.00,502.82
             211.00,502.82 221.00,499.59 221.00,499.59
             224.40,498.02 227.83,495.12 231.00,493.00
             228.82,488.89 231.66,486.48 234.14,483.00
             237.87,477.76 242.94,472.50 244.00,466.00
             240.42,473.35 235.17,479.82 229.87,486.00
             226.42,490.02 225.18,492.44 220.00,494.00
             220.00,494.00 219.00,489.00 219.00,489.00
             204.83,491.29 196.66,516.54 185.00,520.00
             185.38,513.45 186.17,514.46 188.47,509.00
             189.59,506.36 189.96,503.43 191.58,501.01
             195.08,495.82 211.42,485.25 219.48,475.00
             224.50,468.62 230.98,460.84 221.99,455.14
             220.18,453.99 218.98,453.63 217.00,453.00
             216.85,469.60 208.68,473.58 198.00,484.01
             192.04,489.84 181.41,502.06 177.00,509.00
             181.16,509.99 182.74,510.19 185.00,514.22
             183.06,513.99 178.49,513.61 176.93,514.22
             172.93,516.57 169.71,527.01 174.26,529.98
             179.00,532.92 183.11,530.20 188.00,529.98
             192.87,529.91 197.33,531.94 202.00,533.00
             200.45,537.43 198.43,536.97 194.00,537.58
             189.97,538.13 177.00,537.07 173.00,536.10
             169.87,535.34 167.08,533.71 164.04,535.57
             159.92,538.10 159.60,542.39 157.28,546.00
             157.28,546.00 151.46,553.00 151.46,553.00
             146.46,559.14 142.79,566.13 136.00,570.66
             134.32,571.77 133.02,572.46 131.00,572.74
             124.92,573.56 109.42,567.11 105.22,562.79
             103.37,560.87 102.23,558.62 101.72,556.00
             100.37,548.97 105.32,547.93 107.00,540.00
             107.00,540.00 111.00,539.00 111.00,539.00
             111.00,539.00 108.00,538.00 108.00,538.00
             110.88,532.75 122.19,528.60 128.00,530.60
             130.65,531.51 134.71,535.13 137.00,537.00
             137.00,537.00 139.75,520.00 139.75,520.00
             142.13,505.76 140.68,502.48 147.31,488.00
             147.31,488.00 157.51,467.00 157.51,467.00
             161.06,460.55 166.74,451.34 167.79,444.00
             169.16,434.47 164.13,417.67 164.00,407.00
             164.00,407.00 164.78,387.00 164.78,387.00
             164.21,382.23 161.13,378.79 161.11,368.00
             161.11,368.00 161.11,357.00 161.11,357.00
             161.58,354.32 165.64,339.50 166.79,337.00
             169.13,331.97 176.83,321.30 177.04,316.59
             177.37,309.26 170.80,307.29 168.72,304.70
             166.14,301.50 165.22,291.96 166.43,288.13
             168.28,282.28 176.49,285.98 177.52,279.89
             177.79,278.26 176.29,271.16 175.92,269.00
             174.39,260.01 172.10,247.39 166.83,240.00
             161.51,232.53 155.03,227.78 151.41,223.00
             149.14,220.00 146.04,211.88 144.42,208.00
             142.89,204.32 140.06,197.92 142.04,194.09
             143.70,190.87 150.76,187.12 154.00,185.00 Z
           M 254.00,271.00
           C 248.66,267.58 249.76,263.68 250.58,258.00
             253.20,239.76 254.79,245.33 259.77,232.00
             265.40,216.93 262.91,208.50 257.95,194.00
             256.76,190.54 256.78,187.28 254.91,184.00
             253.00,180.64 249.69,177.86 247.10,175.00
             244.57,172.20 241.83,167.14 238.82,165.58
             235.71,163.98 229.13,164.58 226.09,166.17
             222.05,168.28 222.18,171.23 215.00,170.95
             205.93,170.60 201.99,162.94 196.00,163.86
             192.85,164.34 190.18,166.87 188.00,169.00
             190.92,170.16 196.65,172.09 198.96,173.70
             202.07,175.86 203.59,178.76 206.09,179.80
             208.80,180.92 211.24,179.13 213.57,180.78
             216.48,182.84 216.96,192.53 216.91,196.00
             216.91,196.00 216.91,205.00 216.91,205.00
             217.07,210.66 219.18,216.76 216.91,222.00
             211.70,232.74 204.63,234.86 201.64,238.27
             198.64,241.68 198.07,246.26 196.11,250.00
             196.11,250.00 191.82,257.00 191.82,257.00
             187.90,264.56 185.97,273.67 188.00,282.00
             188.00,282.00 235.00,276.42 235.00,276.42
             242.25,275.46 248.44,276.85 254.00,271.00 Z
           M 497.00,214.00
           C 489.46,214.49 488.61,209.61 484.57,204.00
             480.74,198.67 474.30,191.59 469.00,187.79
             466.83,186.23 458.36,182.38 461.08,178.63
             463.32,175.55 471.74,180.64 474.00,182.09
             482.16,187.34 496.30,204.19 497.00,214.00 Z
           M 434.00,178.00
           C 441.43,178.41 445.81,181.97 452.00,185.81
             465.82,194.40 474.83,204.51 483.66,218.00
             488.19,224.93 491.79,229.51 492.00,238.00
             483.73,235.55 480.25,225.56 475.57,219.00
             467.13,207.17 460.14,200.05 448.00,192.00
             441.64,187.79 434.67,186.20 434.00,178.00 Z
           M 163.00,224.00
           C 163.00,224.00 165.19,209.00 165.19,209.00
             165.49,204.08 164.74,197.87 160.78,194.43
             158.83,192.74 155.75,191.56 153.60,193.61
             151.16,195.94 152.44,201.07 152.92,204.00
             154.56,214.04 153.20,218.25 163.00,224.00 Z
           M 379.00,267.00
           C 370.15,266.69 368.19,261.54 363.00,255.00
             352.44,241.68 347.53,231.41 343.37,215.00
             342.35,210.95 338.47,198.02 340.99,194.72
             341.89,193.54 342.79,193.49 344.00,193.00
             350.45,209.24 349.48,219.71 359.43,237.00
             364.25,245.38 377.81,259.20 379.00,267.00 Z
           M 434.00,203.00
           C 435.82,195.08 443.06,198.79 448.00,201.97
             453.73,205.65 461.96,215.07 465.54,221.00
             466.74,222.99 469.84,228.15 467.37,230.15
             466.41,230.97 465.29,230.69 464.30,230.15
             462.61,229.13 458.32,222.94 456.74,221.00
             454.13,217.79 452.09,215.34 448.96,212.59
             443.45,207.73 440.69,205.90 434.00,203.00 Z
           M 360.00,207.00
           C 367.55,208.26 366.92,213.73 369.08,220.00
             370.99,225.56 373.95,231.34 377.53,236.00
             379.19,238.17 385.00,243.42 382.92,246.38
             380.12,250.38 373.06,241.99 371.53,240.00
             364.67,231.11 360.03,218.18 360.00,207.00 Z
           M 172.00,215.00
           C 171.99,218.55 174.85,220.86 178.00,222.00
             178.00,222.00 172.00,215.00 172.00,215.00 Z
           M 334.00,215.00
           C 334.00,215.00 339.42,233.00 339.42,233.00
             341.23,237.78 342.47,240.71 345.36,245.00
             345.36,245.00 352.83,254.98 352.83,254.98
             353.87,257.89 351.81,259.70 348.98,258.68
             346.57,257.81 342.98,253.99 341.33,252.00
             336.38,246.04 332.93,236.43 330.72,229.00
             328.83,222.67 325.16,215.74 334.00,215.00 Z
           M 408.00,221.00
           C 405.80,228.75 418.92,232.66 424.00,235.96
             432.07,241.21 445.14,254.08 446.66,264.00
             447.09,266.84 446.49,269.24 446.00,272.00
             450.34,274.87 450.27,283.66 452.00,289.00
             452.00,289.00 446.86,286.00 446.86,286.00
             448.12,299.85 448.58,313.16 446.86,327.00
             446.86,327.00 441.29,353.00 441.29,353.00
             440.51,359.28 440.14,376.36 438.28,381.00
             437.28,383.50 434.63,386.64 433.00,389.00
             433.00,389.00 437.00,388.00 437.00,388.00
             437.00,388.00 438.00,389.00 438.00,389.00
             438.00,389.00 428.00,412.00 428.00,412.00
             441.37,400.68 444.85,372.70 445.00,356.00
             452.02,360.17 448.56,365.84 451.00,372.00
             453.27,367.71 457.12,362.01 456.38,357.00
             455.56,351.48 450.54,346.75 451.43,341.00
             451.97,337.52 455.44,332.32 454.88,326.02
             454.43,320.96 451.76,321.17 450.60,317.87
             449.53,314.83 451.05,310.92 452.00,308.00
             452.00,308.00 454.92,310.00 454.92,310.00
             454.92,310.00 454.92,299.00 454.92,299.00
             454.92,299.00 453.18,282.00 453.18,282.00
             452.92,277.89 454.13,270.99 453.18,268.00
             451.66,261.51 442.67,247.84 437.96,243.01
             437.96,243.01 408.00,221.00 408.00,221.00 Z
           M 272.00,354.00
           C 277.13,355.58 278.62,357.94 280.00,363.00
             274.23,361.56 272.69,359.89 272.00,354.00 Z
           M 186.00,367.00
           C 186.00,367.00 188.00,367.00 188.00,367.00
             189.45,372.11 190.24,381.60 187.00,386.00
             184.40,379.76 184.41,373.52 186.00,367.00 Z
           M 297.30,383.74
           C 303.73,382.01 318.02,385.11 323.98,388.14
             327.19,389.76 333.00,395.53 327.71,398.26
             326.53,398.87 324.33,398.99 323.00,399.15
             314.83,400.15 309.68,398.74 303.00,393.70
             299.84,391.32 292.81,387.64 297.30,383.74 Z
           M 424.00,394.00
           C 424.00,394.00 423.00,394.00 423.00,394.00
             423.00,394.00 424.00,395.00 424.00,395.00
             424.00,395.00 424.00,394.00 424.00,394.00 Z
           M 423.00,396.00
           C 423.00,396.00 422.00,396.00 422.00,396.00
             422.00,396.00 423.00,397.00 423.00,397.00
             423.00,397.00 423.00,396.00 423.00,396.00 Z
           M 428.00,397.00
           C 428.00,397.00 427.00,397.00 427.00,397.00
             427.00,397.00 428.00,398.00 428.00,398.00
             428.00,398.00 428.00,397.00 428.00,397.00 Z
           M 273.00,400.00
           C 273.00,400.00 275.00,400.00 275.00,400.00
             274.89,405.13 274.65,411.98 270.00,415.00
             270.02,407.39 270.19,407.09 273.00,400.00 Z
           M 358.00,401.00
           C 358.00,401.00 357.00,401.00 357.00,401.00
             357.00,401.00 358.00,402.00 358.00,402.00
             358.00,402.00 358.00,401.00 358.00,401.00 Z
           M 357.00,402.00
           C 357.00,402.00 356.00,402.00 356.00,402.00
             356.00,402.00 357.00,403.00 357.00,403.00
             357.00,403.00 357.00,402.00 357.00,402.00 Z
           M 285.00,405.00
           C 286.49,409.52 282.99,417.08 282.00,422.00
             282.00,422.00 288.00,421.00 288.00,421.00
             288.00,421.00 285.00,431.00 285.00,431.00
             285.00,431.00 283.00,431.00 283.00,431.00
             279.03,420.99 277.84,413.85 285.00,405.00 Z
           M 454.00,406.00
           C 451.06,413.43 457.11,428.72 460.00,436.00
             463.95,433.91 464.68,434.48 469.00,435.00
             464.41,423.44 464.69,413.73 454.00,406.00 Z
           M 444.00,419.00
           C 444.00,419.00 442.00,419.00 442.00,419.00
             441.22,421.47 440.49,423.33 440.65,426.00
             441.32,437.28 458.60,459.23 461.00,472.00
             461.00,472.00 451.00,460.00 451.00,460.00
             451.00,460.00 447.00,461.00 447.00,461.00
             447.00,461.00 447.00,465.00 447.00,465.00
             447.00,465.00 442.00,463.00 442.00,463.00
             442.00,463.00 447.00,483.00 447.00,483.00
             447.00,483.00 443.00,482.00 443.00,482.00
             443.00,482.00 444.00,486.00 444.00,486.00
             444.00,486.00 441.00,488.00 441.00,488.00
             441.00,488.00 469.00,516.00 469.00,516.00
             467.43,509.05 464.96,505.25 467.00,498.00
             471.65,508.81 486.24,531.75 495.00,539.00
             490.49,527.23 477.45,517.17 477.00,504.00
             487.37,508.90 492.83,520.68 501.00,528.00
             501.00,528.00 484.00,500.00 484.00,500.00
             484.00,500.00 498.00,514.00 498.00,514.00
             498.00,514.00 489.69,489.00 489.69,489.00
             489.69,489.00 480.52,472.00 480.52,472.00
             480.52,472.00 474.00,454.00 474.00,454.00
             469.64,455.42 465.93,450.02 463.29,447.00
             459.91,443.15 456.00,438.46 453.51,434.00
             453.51,434.00 450.01,427.00 450.01,427.00
             450.01,427.00 444.00,419.00 444.00,419.00 Z
           M 291.00,423.00
           C 291.00,423.00 293.00,423.00 293.00,423.00
             293.00,423.00 291.00,437.00 291.00,437.00
             291.00,437.00 289.00,437.00 289.00,437.00
             287.98,431.95 289.04,427.69 291.00,423.00 Z
           M 302.00,429.00
           C 302.00,429.00 304.00,429.00 304.00,429.00
             304.00,429.00 303.00,434.00 303.00,434.00
             303.00,434.00 302.00,429.00 302.00,429.00 Z
           M 296.00,430.00
           C 296.00,430.00 299.00,435.00 299.00,435.00
             295.94,433.73 296.28,433.21 296.00,430.00 Z
           M 245.00,435.00
           C 245.00,435.00 244.00,435.00 244.00,435.00
             244.00,435.00 245.00,436.00 245.00,436.00
             245.00,436.00 245.00,435.00 245.00,435.00 Z
           M 246.00,436.00
           C 246.00,436.00 245.00,436.00 245.00,436.00
             245.00,436.00 246.00,437.00 246.00,437.00
             246.00,437.00 246.00,436.00 246.00,436.00 Z
           M 321.00,441.00
           C 321.00,441.00 320.00,441.00 320.00,441.00
             320.00,441.00 321.00,442.00 321.00,442.00
             321.00,442.00 321.00,441.00 321.00,441.00 Z
           M 245.00,443.00
           C 245.00,443.00 244.00,443.00 244.00,443.00
             244.00,443.00 245.00,444.00 245.00,444.00
             245.00,444.00 245.00,443.00 245.00,443.00 Z
           M 246.00,444.00
           C 246.00,444.00 245.00,444.00 245.00,444.00
             245.00,444.00 246.00,445.00 246.00,445.00
             246.00,445.00 246.00,444.00 246.00,444.00 Z
           M 399.00,446.00
           C 399.00,446.00 401.00,446.00 401.00,446.00
             403.43,452.17 401.99,456.84 398.00,462.00
             398.00,462.00 399.00,446.00 399.00,446.00 Z
           M 392.00,455.00
           C 395.30,459.48 394.29,466.71 391.00,471.00
             391.00,471.00 392.00,455.00 392.00,455.00 Z
           M 450.00,457.00
           C 450.00,457.00 449.00,457.00 449.00,457.00
             449.00,457.00 450.00,458.00 450.00,458.00
             450.00,458.00 450.00,457.00 450.00,457.00 Z
           M 451.00,459.00
           C 451.00,459.00 450.00,459.00 450.00,459.00
             450.00,459.00 451.00,460.00 451.00,460.00
             451.00,460.00 451.00,459.00 451.00,459.00 Z
           M 209.00,463.00
           C 209.00,463.00 208.00,463.00 208.00,463.00
             208.00,463.00 209.00,464.00 209.00,464.00
             209.00,464.00 209.00,463.00 209.00,463.00 Z
           M 208.00,464.00
           C 208.00,464.00 207.00,464.00 207.00,464.00
             207.00,464.00 208.00,465.00 208.00,465.00
             208.00,465.00 208.00,464.00 208.00,464.00 Z
           M 246.00,465.00
           C 246.00,465.00 245.00,465.00 245.00,465.00
             245.00,465.00 246.00,466.00 246.00,466.00
             246.00,466.00 246.00,465.00 246.00,465.00 Z
           M 253.00,466.00
           C 247.44,468.76 234.71,485.16 232.00,491.00
             239.27,485.79 248.88,474.00 253.00,466.00 Z
           M 429.00,474.00
           C 427.87,478.76 431.43,480.67 435.00,483.00
             435.00,483.00 429.00,474.00 429.00,474.00 Z
           M 187.00,477.00
           C 187.00,477.00 186.00,477.00 186.00,477.00
             186.00,477.00 187.00,478.00 187.00,478.00
             187.00,478.00 187.00,477.00 187.00,477.00 Z
           M 386.00,489.00
           C 386.00,489.00 388.00,489.00 388.00,489.00
             388.00,489.00 383.00,509.00 383.00,509.00
             383.00,509.00 381.00,509.00 381.00,509.00
             381.00,509.00 384.00,491.00 384.00,491.00
             384.00,491.00 386.00,494.00 386.00,494.00
             386.00,494.00 386.00,489.00 386.00,489.00 Z
           M 232.00,491.00
           C 232.00,491.00 231.00,491.00 231.00,491.00
             231.00,491.00 232.00,492.00 232.00,492.00
             232.00,492.00 232.00,491.00 232.00,491.00 Z
           M 376.00,494.00
           C 378.20,497.04 378.20,497.96 376.00,501.00
             376.00,501.00 376.00,494.00 376.00,494.00 Z
           M 370.00,497.00
           C 371.84,500.35 371.84,501.65 370.00,505.00
             370.00,505.00 370.00,497.00 370.00,497.00 Z
           M 175.00,499.00
           C 175.00,499.00 174.00,499.00 174.00,499.00
             174.00,499.00 175.00,500.00 175.00,500.00
             175.00,500.00 175.00,499.00 175.00,499.00 Z
           M 364.00,498.00
           C 364.00,498.00 366.00,498.00 366.00,498.00
             365.87,503.87 364.90,511.43 361.00,516.00
             361.01,508.18 361.19,505.44 364.00,498.00 Z
           M 174.00,500.00
           C 174.00,500.00 173.00,500.00 173.00,500.00
             173.00,500.00 174.00,501.00 174.00,501.00
             174.00,501.00 174.00,500.00 174.00,500.00 Z
           M 171.00,504.00
           C 171.00,504.00 170.00,504.00 170.00,504.00
             170.00,504.00 171.00,505.00 171.00,505.00
             171.00,505.00 171.00,504.00 171.00,504.00 Z
           M 375.00,503.00
           C 376.16,506.27 375.85,507.09 373.00,509.00
             373.00,509.00 375.00,503.00 375.00,503.00 Z
           M 170.00,505.00
           C 170.00,505.00 169.00,505.00 169.00,505.00
             169.00,505.00 170.00,506.00 170.00,506.00
             170.00,506.00 170.00,505.00 170.00,505.00 Z
           M 169.00,506.00
           C 169.00,506.00 164.00,512.00 164.00,512.00
             164.00,512.00 169.00,506.00 169.00,506.00 Z
           M 369.00,509.00
           C 369.00,509.00 369.00,514.00 369.00,514.00
             369.00,514.00 369.00,509.00 369.00,509.00 Z
           M 372.00,510.00
           C 372.00,510.00 374.00,510.00 374.00,510.00
             374.00,510.00 374.00,514.00 374.00,514.00
             374.00,514.00 372.00,514.00 372.00,514.00
             372.00,514.00 372.00,510.00 372.00,510.00 Z
           M 164.00,512.00
           C 164.00,512.00 163.00,512.00 163.00,512.00
             163.00,512.00 164.00,513.00 164.00,513.00
             164.00,513.00 164.00,512.00 164.00,512.00 Z
           M 366.00,515.00
           C 366.00,515.00 368.00,515.00 368.00,515.00
             368.65,519.23 369.53,521.36 365.00,523.00
             365.00,523.00 366.00,515.00 366.00,515.00 Z
           M 166.00,520.00
           C 162.69,522.60 159.49,525.49 160.00,530.00
             160.00,530.00 166.00,520.00 166.00,520.00 Z
           M 382.00,523.00
           C 382.00,523.00 384.00,523.00 384.00,523.00
             384.00,523.00 384.00,527.00 384.00,527.00
             384.00,527.00 382.00,527.00 382.00,527.00
             382.00,527.00 382.00,523.00 382.00,523.00 Z
           M 368.00,525.00
           C 368.00,525.00 370.00,525.00 370.00,525.00
             370.00,525.00 369.00,529.00 369.00,529.00
             369.00,529.00 368.00,525.00 368.00,525.00 Z
           M 159.00,530.00
           C 159.00,530.00 158.00,530.00 158.00,530.00
             158.00,530.00 159.00,531.00 159.00,531.00
             159.00,531.00 159.00,530.00 159.00,530.00 Z
           M 158.00,531.00
           C 158.00,531.00 157.00,531.00 157.00,531.00
             157.00,531.00 158.00,532.00 158.00,532.00
             158.00,532.00 158.00,531.00 158.00,531.00 Z
           M 157.00,533.00
           C 157.00,533.00 156.00,533.00 156.00,533.00
             156.00,533.00 157.00,534.00 157.00,534.00
             157.00,534.00 157.00,533.00 157.00,533.00 Z
           M 505.00,534.00
           C 503.40,538.88 506.62,543.69 508.75,548.00
             517.83,566.32 516.69,561.61 529.91,576.00
             534.75,581.27 535.27,583.79 536.95,585.84
             537.97,587.07 539.72,588.73 541.32,587.26
             544.58,584.27 537.94,575.26 535.90,573.00
             535.90,573.00 525.76,562.00 525.76,562.00
             525.76,562.00 516.61,548.04 516.61,548.04
             511.77,542.16 509.73,543.64 505.00,534.00 Z
           M 127.00,538.00
           C 127.00,538.00 126.00,538.00 126.00,538.00
             126.00,538.00 127.00,539.00 127.00,539.00
             127.00,539.00 127.00,538.00 127.00,538.00 Z
           M 111.00,559.00
           C 119.80,553.66 123.70,560.00 128.96,557.81
             133.01,556.11 137.56,546.41 134.97,542.42
             133.33,539.88 129.71,539.43 127.00,539.00
             122.57,546.77 118.41,538.57 111.00,541.00
             111.00,541.00 116.00,545.00 116.00,545.00
             107.61,548.68 107.41,550.54 111.00,559.00 Z
           M 488.00,539.00
           C 488.00,539.00 487.00,539.00 487.00,539.00
             487.00,539.00 488.00,540.00 488.00,540.00
             488.00,540.00 488.00,539.00 488.00,539.00 Z
           M 496.00,539.00
           C 496.00,539.00 495.00,539.00 495.00,539.00
             495.00,539.00 496.00,540.00 496.00,540.00
             496.00,540.00 496.00,539.00 496.00,539.00 Z
           M 489.00,540.00
           C 487.91,545.30 493.77,551.45 496.21,556.00
             498.77,560.79 500.52,566.66 503.63,571.00
             507.15,575.88 510.59,577.72 515.00,581.31
             515.00,581.31 530.00,594.00 530.00,594.00
             530.00,594.00 518.63,578.00 518.63,578.00
             518.63,578.00 501.80,556.00 501.80,556.00
             501.80,556.00 489.00,540.00 489.00,540.00 Z
           M 497.00,540.00
           C 497.00,540.00 496.00,540.00 496.00,540.00
             496.00,540.00 497.00,541.00 497.00,541.00
             497.00,541.00 497.00,540.00 497.00,540.00 Z
           M 152.00,543.00
           C 152.00,543.00 151.00,543.00 151.00,543.00
             151.00,543.00 152.00,544.00 152.00,544.00
             152.00,544.00 152.00,543.00 152.00,543.00 Z
           M 547.00,599.00
           C 547.00,599.00 546.00,599.00 546.00,599.00
             546.00,599.00 547.00,600.00 547.00,600.00
             547.00,600.00 547.00,599.00 547.00,599.00 Z
           M 537.00,600.00
           C 535.80,604.45 538.10,607.78 541.00,611.00
             541.00,611.00 537.00,600.00 537.00,600.00 Z
           M 548.00,603.00
           C 548.00,603.00 547.00,603.00 547.00,603.00
             547.00,603.00 548.00,604.00 548.00,604.00
             548.00,604.00 548.00,603.00 548.00,603.00 Z
           M 542.00,611.00
           C 542.00,611.00 541.00,611.00 541.00,611.00
             541.00,611.00 542.00,612.00 542.00,612.00
             542.00,612.00 542.00,611.00 542.00,611.00 Z
           M 550.00,612.00
           C 550.00,612.00 546.00,622.00 546.00,622.00
             545.32,617.69 545.06,616.22 541.87,613.00
             544.07,624.62 548.06,628.96 541.87,641.00
             539.48,645.29 538.40,646.86 534.00,649.00
             532.62,639.48 539.92,636.79 530.00,633.09
             530.00,633.09 526.00,632.00 526.00,632.00
             522.42,639.58 524.67,641.33 517.00,647.00
             523.77,655.39 537.10,655.00 547.00,655.00
             547.00,655.00 546.00,650.00 546.00,650.00
             549.32,650.50 550.56,651.37 552.00,648.00
             552.00,648.00 560.00,653.00 560.00,653.00
             560.00,653.00 556.92,643.00 556.92,643.00
             556.92,643.00 550.00,612.00 550.00,612.00 Z
           M 553.00,651.00
           C 553.00,651.00 552.00,651.00 552.00,651.00
             552.00,651.00 553.00,652.00 553.00,652.00
             553.00,652.00 553.00,651.00 553.00,651.00 Z
           M 376.00,679.00
           C 376.00,679.00 375.00,679.00 375.00,679.00
             375.00,679.00 376.00,680.00 376.00,680.00
             376.00,680.00 376.00,679.00 376.00,679.00 Z" />
</svg>
