<svg xmlns="http://www.w3.org/2000/svg"
     width="100%"
     viewBox="0 0 840 810">
  <path id="Selection"
        fill="#bbdefb" stroke="none" stroke-width="1"
        d="M 557.00,40.42
           C 563.35,39.71 574.77,41.51 581.00,43.30
             623.86,55.62 646.93,105.07 647.00,147.00
             647.00,147.00 647.00,160.00 647.00,160.00
             646.99,167.85 645.72,176.25 644.41,184.00
             638.74,217.75 623.33,249.77 599.00,274.00
             583.16,289.77 558.95,303.89 536.00,304.00
             536.00,304.00 528.00,304.00 528.00,304.00
             519.47,303.90 510.77,301.57 503.00,298.14
             465.79,281.73 446.06,237.04 446.00,198.00
             446.00,198.00 446.00,182.00 446.00,182.00
             446.07,176.01 447.57,166.07 448.59,160.00
             456.38,113.65 484.94,64.70 530.00,46.45
             540.74,42.10 546.09,41.98 557.00,40.42 Z
           M 266.00,43.43
           C 295.83,39.74 319.64,53.55 340.00,74.00
             377.36,111.54 391.27,178.70 376.28,229.00
             364.48,268.60 336.86,300.51 293.00,300.00
             262.04,299.63 232.84,276.72 216.35,252.00
             189.72,212.07 181.71,162.32 193.63,116.00
             203.10,79.22 227.29,49.77 266.00,43.43 Z
           M 86.00,240.44
           C 142.63,233.18 188.49,286.72 201.37,337.00
             203.38,344.85 205.90,359.04 206.00,367.00
             206.45,405.84 192.99,447.94 152.00,460.97
             141.76,464.23 136.46,464.12 126.00,464.00
             110.05,463.81 93.07,456.38 80.00,447.67
             41.69,422.12 22.63,377.76 20.09,333.00
             20.09,333.00 20.96,322.00 20.96,322.00
             22.41,292.02 37.72,259.56 66.00,246.32
             72.01,243.51 79.48,241.64 86.00,240.44 Z
           M 741.00,240.38
           C 741.00,240.38 745.00,240.38 745.00,240.38
             757.29,241.24 768.05,243.30 779.00,249.31
             804.22,263.16 817.69,292.13 819.04,320.00
             819.23,324.01 820.17,326.89 819.83,331.00
             818.87,342.49 817.75,353.85 814.57,365.00
             802.71,406.57 770.90,448.28 728.00,460.57
             715.41,464.18 709.81,464.15 697.00,464.00
             656.87,463.53 627.45,422.74 627.00,385.00
             626.81,368.08 626.68,358.77 630.89,342.00
             640.88,302.24 669.94,264.17 708.00,247.87
             721.35,242.16 727.44,242.28 741.00,240.38 Z
           M 403.00,326.42
           C 408.78,325.72 424.79,327.14 431.00,328.00
             441.81,329.49 453.98,332.57 464.00,336.87
             507.15,355.40 529.47,396.40 553.69,434.00
             553.69,434.00 580.42,472.00 580.42,472.00
             606.08,504.92 618.37,509.26 639.83,533.00
             671.85,568.41 693.56,610.45 693.00,659.00
             692.40,709.75 655.37,754.92 607.00,768.57
             599.73,770.62 592.47,771.42 585.00,772.17
             580.46,772.62 578.90,773.10 574.00,772.99
             574.00,772.99 565.00,772.09 565.00,772.09
             540.35,770.29 516.70,763.01 493.00,756.42
             463.98,748.36 434.26,741.65 404.00,742.00
             357.44,742.55 296.26,771.49 253.00,772.00
             233.90,772.22 221.17,771.91 203.00,764.55
             171.75,751.89 146.63,722.24 137.43,690.00
             133.69,676.90 133.23,669.35 132.74,656.00
             130.95,606.83 157.33,560.75 190.09,526.00
             190.09,526.00 210.00,507.91 210.00,507.91
             220.34,498.28 230.43,487.93 239.39,477.00
             239.39,477.00 306.80,386.00 306.80,386.00
             321.94,367.00 340.69,346.89 363.00,336.32
             371.35,332.36 383.83,328.48 393.00,327.29
             393.00,327.29 403.00,326.42 403.00,326.42 Z" />
</svg>
