<svg version="1.0" xmlns="http://www.w3.org/2000/svg"
 width="100%" viewBox="0 0 300.000000 300.000000"
 preserveAspectRatio="none">

<g transform="translate(0.000000,300.000000) scale(0.100000,-0.100000)"
fill="#000000" stroke="none">
<path d="M1330 2824 c-398 -51 -721 -236 -948 -543 -407 -550 -311 -1346 213
-1779 353 -292 784 -382 1230 -256 195 55 396 175 551 329 187 187 299 386
365 650 29 114 37 368 16 490 -51 289 -175 531 -371 725 -190 188 -432 316
-687 365 -83 15 -305 27 -369 19z m350 -59 c448 -74 842 -412 984 -845 53
-163 70 -286 63 -459 -14 -341 -148 -636 -398 -876 -176 -168 -383 -276 -639
-331 -102 -22 -367 -25 -470 -5 -260 51 -495 175 -680 361 -237 237 -370 555
-370 885 0 497 273 937 718 1160 238 118 509 156 792 110z"/>
<path d="M1570 2643 c-722 -118 -1112 -388 -1204 -836 -19 -89 -21 -275 -5
-380 12 -82 56 -262 69 -288 23 -41 202 -53 295 -18 194 73 329 294 414 679
99 447 254 714 462 796 89 35 70 64 -31 47z m-133 -104 c-145 -129 -259 -374
-337 -729 -86 -385 -218 -600 -404 -655 -57 -17 -145 -19 -197 -5 -33 9 -37
15 -52 68 -42 154 -52 226 -52 392 0 141 4 176 23 243 110 383 448 615 1071
736 3 1 -21 -22 -52 -50z"/>
<path d="M1654 2562 c-189 -65 -328 -301 -418 -707 -74 -332 -110 -442 -188
-572 -50 -85 -133 -165 -210 -202 -82 -41 -194 -51 -301 -29 -89 19 -98 10
-61 -64 175 -347 478 -560 864 -608 46 -5 92 -10 102 -10 11 0 31 26 58 77
115 221 305 390 619 553 297 153 405 348 400 724 -3 258 -73 431 -249 606 -77
77 -113 104 -187 143 -191 99 -321 126 -429 89z m228 -48 c155 -49 298 -135
386 -232 72 -80 141 -196 167 -282 7 -24 6 -23 -15 5 -110 144 -210 176 -340
110 -43 -22 -120 -95 -152 -143 l-15 -22 -36 46 c-165 212 -420 184 -472 -52
-15 -67 -15 -77 -1 -127 28 -98 96 -171 265 -287 107 -74 193 -154 220 -208
12 -23 23 -42 26 -42 2 0 12 17 22 37 24 52 106 130 223 213 124 88 204 166
250 245 31 52 35 67 35 128 l0 69 13 -44 c20 -66 27 -290 13 -388 -25 -170
-102 -320 -209 -405 -31 -25 -111 -73 -177 -107 -305 -159 -511 -343 -618
-555 -15 -28 -30 -54 -34 -56 -16 -9 -170 14 -261 38 -267 71 -485 244 -635
505 l-26 45 132 0 c123 0 136 2 191 27 127 60 210 146 287 301 56 110 92 225
134 427 97 459 227 697 415 763 65 23 118 21 212 -9z m376 -410 c128 -53 186
-213 118 -326 -36 -61 -149 -166 -252 -234 -78 -51 -204 -172 -204 -196 0 -6
-13 7 -28 28 -39 54 -120 125 -222 194 -206 142 -270 252 -228 393 16 53 82
122 130 135 28 8 52 7 94 -5 89 -23 119 -46 223 -169 l24 -29 26 34 c81 106
144 158 221 182 39 11 58 10 98 -7z"/>
<path d="M2583 1668 c-6 -7 -14 -44 -17 -83 -16 -164 -83 -339 -169 -444 -63
-75 -131 -128 -277 -215 -281 -167 -477 -345 -544 -494 -28 -62 -18 -67 96
-53 240 28 400 99 555 245 126 119 211 254 276 443 68 195 133 571 103 601
-10 11 -15 11 -23 0z m-103 -542 c-63 -198 -148 -344 -267 -462 -143 -140
-312 -215 -566 -248 l-38 -5 23 40 c40 71 126 165 220 241 111 89 142 110 318
217 146 89 242 174 301 265 19 30 35 52 37 51 1 -1 -11 -46 -28 -99z"/>
</g>
</svg>
