<?xml version="1.0" encoding="UTF-8" standalone="no"?>
<!DOCTYPE svg PUBLIC "-//W3C//DTD SVG 20010904//EN"
              "http://www.w3.org/TR/2001/REC-SVG-20010904/DTD/svg10.dtd">

<svg xmlns="http://www.w3.org/2000/svg"
     width="100%"
     viewBox="0 0 515 355">
  <path id="Selection"
        fill="#bbdefb" stroke="none" stroke-width="1"
        d="M 251.00,44.42
           C 268.92,42.24 295.29,45.05 313.00,48.79
             313.00,48.79 324.00,50.90 324.00,50.90
             334.36,53.43 356.35,61.36 366.00,65.89
             413.34,88.12 458.95,131.28 484.14,177.00
             495.19,197.07 506.45,228.05 504.70,251.17
             504.35,255.90 503.29,258.61 502.36,263.00
             499.62,275.86 494.06,285.95 484.00,294.71
             479.55,298.59 475.39,301.93 470.00,304.41
             464.04,307.16 458.42,310.74 452.00,312.33
             447.40,313.48 428.12,315.99 424.00,315.68
             398.58,313.73 382.47,307.51 359.00,299.30
             359.00,299.30 351.00,296.91 351.00,296.91
             332.51,290.36 329.54,289.26 310.04,285.56
             303.66,284.35 295.35,282.66 289.00,283.09
             279.84,283.71 264.74,285.18 256.00,287.24
             256.00,287.24 238.00,292.98 238.00,292.98
             238.00,292.98 205.00,303.86 205.00,303.86
             189.84,309.24 174.83,315.09 159.00,318.33
             159.00,318.33 144.00,320.27 144.00,320.27
             144.00,320.27 117.83,322.76 117.83,322.76
             113.18,322.77 110.34,321.85 106.00,321.29
             95.09,319.87 83.75,318.19 74.00,312.64
             69.72,310.21 60.86,304.05 57.52,300.58
             38.38,280.68 36.76,261.05 37.00,235.00
             37.05,229.55 37.65,222.33 38.61,217.00
             40.55,206.35 43.97,196.16 47.58,186.00
             70.90,120.37 133.70,72.68 199.00,53.44
             211.75,49.68 225.85,47.17 239.00,45.30
             239.00,45.30 251.00,44.42 251.00,44.42 Z" />
</svg>
